<svg width="92" height="12" viewBox="0 0 92 12" fill="none" xmlns="http://www.w3.org/2000/svg">
<path d="M0.078125 7.25994V5.75994L6.07812 3.1179V4.84375L1.97017 6.4929L2.02557 6.40341V6.61648L1.97017 6.52699L6.07812 8.17614V9.90199L0.078125 7.25994ZM83.8928 0.863636L81.0803 11.3125H79.5163L82.3288 0.863636H83.8928ZM91.1211 7.25994L85.1211 9.90199V8.17614L89.229 6.52699L89.1737 6.61648V6.40341L89.229 6.4929L85.1211 4.84375V3.1179L91.1211 5.75994V7.25994Z" fill="#09FFC4"/>
<path d="M7.91477 10V1.27273H9.75994V8.47869H13.5014V10H7.91477ZM18.8867 7.21307V3.45455H20.7021V10H18.9592V8.81108H18.891C18.7433 9.1946 18.4975 9.50284 18.1538 9.7358C17.8129 9.96875 17.3967 10.0852 16.9052 10.0852C16.4677 10.0852 16.0827 9.9858 15.7504 9.78693C15.418 9.58807 15.158 9.3054 14.9705 8.93892C14.7859 8.57244 14.6921 8.13352 14.6893 7.62216V3.45455H16.5046V7.2983C16.5075 7.68466 16.6112 7.99006 16.8157 8.21449C17.0202 8.43892 17.2944 8.55114 17.6381 8.55114C17.8569 8.55114 18.0614 8.50142 18.2518 8.40199C18.4421 8.29972 18.5955 8.14915 18.712 7.95028C18.8313 7.75142 18.8896 7.50568 18.8867 7.21307ZM25.1115 10.1278C24.4411 10.1278 23.8643 9.9858 23.3814 9.7017C22.9013 9.41477 22.532 9.01705 22.2734 8.50852C22.0178 8 21.8899 7.41477 21.8899 6.75284C21.8899 6.08239 22.0192 5.49432 22.2777 4.98864C22.5391 4.48011 22.9098 4.08381 23.3899 3.79972C23.87 3.51278 24.4411 3.36932 25.103 3.36932C25.674 3.36932 26.174 3.47301 26.603 3.6804C27.032 3.88778 27.3714 4.17898 27.6214 4.55398C27.8714 4.92898 28.0092 5.36932 28.0348 5.875H26.3217C26.2734 5.5483 26.1456 5.28551 25.9382 5.08665C25.7337 4.88494 25.4652 4.78409 25.1328 4.78409C24.8516 4.78409 24.6058 4.8608 24.3956 5.0142C24.1882 5.16477 24.0263 5.38494 23.9098 5.67472C23.7933 5.96449 23.7351 6.31534 23.7351 6.72727C23.7351 7.14489 23.7919 7.5 23.9055 7.79261C24.022 8.08523 24.1854 8.30824 24.3956 8.46165C24.6058 8.61506 24.8516 8.69176 25.1328 8.69176C25.3402 8.69176 25.5263 8.64915 25.6911 8.56392C25.8587 8.47869 25.9964 8.35511 26.1044 8.19318C26.2152 8.02841 26.2876 7.83097 26.3217 7.60085H28.0348C28.0064 8.10085 27.87 8.54119 27.6257 8.92188C27.3842 9.29972 27.0504 9.59517 26.6243 9.80824C26.1982 10.0213 25.6939 10.1278 25.1115 10.1278ZM31.0636 10.1236C30.646 10.1236 30.2738 10.0511 29.9471 9.90625C29.6204 9.75852 29.3619 9.54119 29.1715 9.25426C28.984 8.96449 28.8903 8.60369 28.8903 8.17188C28.8903 7.80824 28.957 7.50284 29.0906 7.25568C29.2241 7.00852 29.4059 6.80966 29.636 6.65909C29.8661 6.50852 30.1275 6.39489 30.4201 6.31818C30.7156 6.24148 31.0252 6.1875 31.3491 6.15625C31.7298 6.11648 32.0366 6.07955 32.2695 6.04545C32.5025 6.00852 32.6715 5.95455 32.7766 5.88352C32.8817 5.8125 32.9343 5.70739 32.9343 5.56818V5.54261C32.9343 5.27273 32.8491 5.06392 32.6786 4.91619C32.511 4.76847 32.2724 4.6946 31.9627 4.6946C31.636 4.6946 31.3761 4.76705 31.1829 4.91193C30.9897 5.05398 30.8619 5.23295 30.7994 5.44886L29.1204 5.3125C29.2056 4.91477 29.3732 4.57102 29.6232 4.28125C29.8732 3.98864 30.1957 3.7642 30.5906 3.60795C30.9883 3.44886 31.4485 3.36932 31.9712 3.36932C32.3349 3.36932 32.6829 3.41193 33.0153 3.49716C33.3505 3.58239 33.6474 3.71449 33.9059 3.89347C34.1673 4.07244 34.3732 4.30256 34.5238 4.58381C34.6744 4.86222 34.7496 5.19602 34.7496 5.58523V10H33.0281V9.09233H32.9769C32.8718 9.29688 32.7312 9.47727 32.555 9.63352C32.3789 9.78693 32.1673 9.90767 31.9201 9.99574C31.6729 10.081 31.3874 10.1236 31.0636 10.1236ZM31.5835 8.87074C31.8505 8.87074 32.0863 8.81818 32.2908 8.71307C32.4954 8.60511 32.6559 8.46023 32.7724 8.27841C32.8888 8.09659 32.9471 7.89062 32.9471 7.66051V6.96591C32.8903 7.00284 32.8121 7.03693 32.7127 7.06818C32.6161 7.09659 32.5067 7.12358 32.3846 7.14915C32.2624 7.17187 32.1403 7.19318 32.0181 7.21307C31.896 7.23011 31.7852 7.24574 31.6857 7.25994C31.4727 7.29119 31.2866 7.34091 31.1275 7.40909C30.9684 7.47727 30.8448 7.5696 30.7567 7.68608C30.6687 7.79972 30.6246 7.94176 30.6246 8.11222C30.6246 8.35938 30.7141 8.5483 30.8931 8.67898C31.0749 8.80682 31.305 8.87074 31.5835 8.87074ZM41.604 5.32102L39.9421 5.4233C39.9137 5.28125 39.8526 5.15341 39.7589 5.03977C39.6651 4.9233 39.5415 4.83097 39.3881 4.76278C39.2376 4.69176 39.0572 4.65625 38.8469 4.65625C38.5657 4.65625 38.3285 4.71591 38.1353 4.83523C37.9421 4.9517 37.8455 5.10795 37.8455 5.30398C37.8455 5.46023 37.908 5.59233 38.033 5.70028C38.158 5.80824 38.3725 5.89489 38.6765 5.96023L39.8612 6.19886C40.4975 6.32955 40.9719 6.53977 41.2844 6.82955C41.5969 7.11932 41.7532 7.5 41.7532 7.97159C41.7532 8.40057 41.6268 8.77699 41.3739 9.10085C41.1239 9.42472 40.7802 9.67756 40.3427 9.85938C39.908 10.0384 39.4066 10.1278 38.8384 10.1278C37.9719 10.1278 37.2816 9.94744 36.7674 9.58665C36.256 9.22301 35.9563 8.72869 35.8683 8.10369L37.6538 8.00994C37.7077 8.27415 37.8384 8.47585 38.0458 8.61506C38.2532 8.75142 38.5188 8.8196 38.8427 8.8196C39.1609 8.8196 39.4165 8.75852 39.6097 8.63636C39.8058 8.51136 39.9052 8.35085 39.908 8.15483C39.9052 7.99006 39.8356 7.85511 39.6992 7.75C39.5629 7.64205 39.3526 7.55966 39.0685 7.50284L37.935 7.27699C37.2958 7.14915 36.82 6.92756 36.5075 6.61222C36.1978 6.29687 36.043 5.89489 36.043 5.40625C36.043 4.9858 36.1566 4.62358 36.3839 4.3196C36.614 4.01562 36.9364 3.78125 37.3512 3.61648C37.7688 3.4517 38.2575 3.36932 38.8171 3.36932C39.6438 3.36932 40.2944 3.54403 40.7688 3.89347C41.2461 4.2429 41.5245 4.71875 41.604 5.32102Z" fill="#15D5FF" fill-opacity="0.74"/>
<path d="M7.91477 10V1.27273H9.75994V8.47869H13.5014V10H7.91477ZM18.8867 7.21307V3.45455H20.7021V10H18.9592V8.81108H18.891C18.7433 9.1946 18.4975 9.50284 18.1538 9.7358C17.8129 9.96875 17.3967 10.0852 16.9052 10.0852C16.4677 10.0852 16.0827 9.9858 15.7504 9.78693C15.418 9.58807 15.158 9.3054 14.9705 8.93892C14.7859 8.57244 14.6921 8.13352 14.6893 7.62216V3.45455H16.5046V7.2983C16.5075 7.68466 16.6112 7.99006 16.8157 8.21449C17.0202 8.43892 17.2944 8.55114 17.6381 8.55114C17.8569 8.55114 18.0614 8.50142 18.2518 8.40199C18.4421 8.29972 18.5955 8.14915 18.712 7.95028C18.8313 7.75142 18.8896 7.50568 18.8867 7.21307ZM25.1115 10.1278C24.4411 10.1278 23.8643 9.9858 23.3814 9.7017C22.9013 9.41477 22.532 9.01705 22.2734 8.50852C22.0178 8 21.8899 7.41477 21.8899 6.75284C21.8899 6.08239 22.0192 5.49432 22.2777 4.98864C22.5391 4.48011 22.9098 4.08381 23.3899 3.79972C23.87 3.51278 24.4411 3.36932 25.103 3.36932C25.674 3.36932 26.174 3.47301 26.603 3.6804C27.032 3.88778 27.3714 4.17898 27.6214 4.55398C27.8714 4.92898 28.0092 5.36932 28.0348 5.875H26.3217C26.2734 5.5483 26.1456 5.28551 25.9382 5.08665C25.7337 4.88494 25.4652 4.78409 25.1328 4.78409C24.8516 4.78409 24.6058 4.8608 24.3956 5.0142C24.1882 5.16477 24.0263 5.38494 23.9098 5.67472C23.7933 5.96449 23.7351 6.31534 23.7351 6.72727C23.7351 7.14489 23.7919 7.5 23.9055 7.79261C24.022 8.08523 24.1854 8.30824 24.3956 8.46165C24.6058 8.61506 24.8516 8.69176 25.1328 8.69176C25.3402 8.69176 25.5263 8.64915 25.6911 8.56392C25.8587 8.47869 25.9964 8.35511 26.1044 8.19318C26.2152 8.02841 26.2876 7.83097 26.3217 7.60085H28.0348C28.0064 8.10085 27.87 8.54119 27.6257 8.92188C27.3842 9.29972 27.0504 9.59517 26.6243 9.80824C26.1982 10.0213 25.6939 10.1278 25.1115 10.1278ZM31.0636 10.1236C30.646 10.1236 30.2738 10.0511 29.9471 9.90625C29.6204 9.75852 29.3619 9.54119 29.1715 9.25426C28.984 8.96449 28.8903 8.60369 28.8903 8.17188C28.8903 7.80824 28.957 7.50284 29.0906 7.25568C29.2241 7.00852 29.4059 6.80966 29.636 6.65909C29.8661 6.50852 30.1275 6.39489 30.4201 6.31818C30.7156 6.24148 31.0252 6.1875 31.3491 6.15625C31.7298 6.11648 32.0366 6.07955 32.2695 6.04545C32.5025 6.00852 32.6715 5.95455 32.7766 5.88352C32.8817 5.8125 32.9343 5.70739 32.9343 5.56818V5.54261C32.9343 5.27273 32.8491 5.06392 32.6786 4.91619C32.511 4.76847 32.2724 4.6946 31.9627 4.6946C31.636 4.6946 31.3761 4.76705 31.1829 4.91193C30.9897 5.05398 30.8619 5.23295 30.7994 5.44886L29.1204 5.3125C29.2056 4.91477 29.3732 4.57102 29.6232 4.28125C29.8732 3.98864 30.1957 3.7642 30.5906 3.60795C30.9883 3.44886 31.4485 3.36932 31.9712 3.36932C32.3349 3.36932 32.6829 3.41193 33.0153 3.49716C33.3505 3.58239 33.6474 3.71449 33.9059 3.89347C34.1673 4.07244 34.3732 4.30256 34.5238 4.58381C34.6744 4.86222 34.7496 5.19602 34.7496 5.58523V10H33.0281V9.09233H32.9769C32.8718 9.29688 32.7312 9.47727 32.555 9.63352C32.3789 9.78693 32.1673 9.90767 31.9201 9.99574C31.6729 10.081 31.3874 10.1236 31.0636 10.1236ZM31.5835 8.87074C31.8505 8.87074 32.0863 8.81818 32.2908 8.71307C32.4954 8.60511 32.6559 8.46023 32.7724 8.27841C32.8888 8.09659 32.9471 7.89062 32.9471 7.66051V6.96591C32.8903 7.00284 32.8121 7.03693 32.7127 7.06818C32.6161 7.09659 32.5067 7.12358 32.3846 7.14915C32.2624 7.17187 32.1403 7.19318 32.0181 7.21307C31.896 7.23011 31.7852 7.24574 31.6857 7.25994C31.4727 7.29119 31.2866 7.34091 31.1275 7.40909C30.9684 7.47727 30.8448 7.5696 30.7567 7.68608C30.6687 7.79972 30.6246 7.94176 30.6246 8.11222C30.6246 8.35938 30.7141 8.5483 30.8931 8.67898C31.0749 8.80682 31.305 8.87074 31.5835 8.87074ZM41.604 5.32102L39.9421 5.4233C39.9137 5.28125 39.8526 5.15341 39.7589 5.03977C39.6651 4.9233 39.5415 4.83097 39.3881 4.76278C39.2376 4.69176 39.0572 4.65625 38.8469 4.65625C38.5657 4.65625 38.3285 4.71591 38.1353 4.83523C37.9421 4.9517 37.8455 5.10795 37.8455 5.30398C37.8455 5.46023 37.908 5.59233 38.033 5.70028C38.158 5.80824 38.3725 5.89489 38.6765 5.96023L39.8612 6.19886C40.4975 6.32955 40.9719 6.53977 41.2844 6.82955C41.5969 7.11932 41.7532 7.5 41.7532 7.97159C41.7532 8.40057 41.6268 8.77699 41.3739 9.10085C41.1239 9.42472 40.7802 9.67756 40.3427 9.85938C39.908 10.0384 39.4066 10.1278 38.8384 10.1278C37.9719 10.1278 37.2816 9.94744 36.7674 9.58665C36.256 9.22301 35.9563 8.72869 35.8683 8.10369L37.6538 8.00994C37.7077 8.27415 37.8384 8.47585 38.0458 8.61506C38.2532 8.75142 38.5188 8.8196 38.8427 8.8196C39.1609 8.8196 39.4165 8.75852 39.6097 8.63636C39.8058 8.51136 39.9052 8.35085 39.908 8.15483C39.9052 7.99006 39.8356 7.85511 39.6992 7.75C39.5629 7.64205 39.3526 7.55966 39.0685 7.50284L37.935 7.27699C37.2958 7.14915 36.82 6.92756 36.5075 6.61222C36.1978 6.29687 36.043 5.89489 36.043 5.40625C36.043 4.9858 36.1566 4.62358 36.3839 4.3196C36.614 4.01562 36.9364 3.78125 37.3512 3.61648C37.7688 3.4517 38.2575 3.36932 38.8171 3.36932C39.6438 3.36932 40.2944 3.54403 40.7688 3.89347C41.2461 4.2429 41.5245 4.71875 41.604 5.32102Z" fill="#507FDA" fill-opacity="0.46"/>
<path d="M45.7077 10V1.27273H49.1509C49.8129 1.27273 50.3768 1.39915 50.8427 1.65199C51.3086 1.90199 51.6637 2.25 51.908 2.69602C52.1552 3.1392 52.2788 3.65057 52.2788 4.23011C52.2788 4.80966 52.1538 5.32102 51.9038 5.7642C51.6538 6.20739 51.2915 6.55256 50.8171 6.79972C50.3455 7.04687 49.7745 7.17045 49.104 7.17045H46.9094V5.69176H48.8058C49.1609 5.69176 49.4535 5.63068 49.6836 5.50852C49.9165 5.38352 50.0898 5.21165 50.2035 4.9929C50.32 4.77131 50.3782 4.51705 50.3782 4.23011C50.3782 3.94034 50.32 3.6875 50.2035 3.47159C50.0898 3.25284 49.9165 3.08381 49.6836 2.96449C49.4506 2.84233 49.1552 2.78125 48.7972 2.78125H47.5529V10H45.7077ZM55.1339 10.1236C54.7163 10.1236 54.3441 10.0511 54.0174 9.90625C53.6907 9.75852 53.4322 9.54119 53.2418 9.25426C53.0543 8.96449 52.9606 8.60369 52.9606 8.17188C52.9606 7.80824 53.0273 7.50284 53.1609 7.25568C53.2944 7.00852 53.4762 6.80966 53.7063 6.65909C53.9364 6.50852 54.1978 6.39489 54.4904 6.31818C54.7859 6.24148 55.0955 6.1875 55.4194 6.15625C55.8001 6.11648 56.1069 6.07955 56.3398 6.04545C56.5728 6.00852 56.7418 5.95455 56.8469 5.88352C56.9521 5.8125 57.0046 5.70739 57.0046 5.56818V5.54261C57.0046 5.27273 56.9194 5.06392 56.7489 4.91619C56.5813 4.76847 56.3427 4.6946 56.033 4.6946C55.7063 4.6946 55.4464 4.76705 55.2532 4.91193C55.06 5.05398 54.9322 5.23295 54.8697 5.44886L53.1907 5.3125C53.2759 4.91477 53.4435 4.57102 53.6935 4.28125C53.9435 3.98864 54.266 3.7642 54.6609 3.60795C55.0586 3.44886 55.5188 3.36932 56.0415 3.36932C56.4052 3.36932 56.7532 3.41193 57.0856 3.49716C57.4208 3.58239 57.7177 3.71449 57.9762 3.89347C58.2376 4.07244 58.4435 4.30256 58.5941 4.58381C58.7447 4.86222 58.82 5.19602 58.82 5.58523V10H57.0984V9.09233H57.0472C56.9421 9.29688 56.8015 9.47727 56.6254 9.63352C56.4492 9.78693 56.2376 9.90767 55.9904 9.99574C55.7433 10.081 55.4577 10.1236 55.1339 10.1236ZM55.6538 8.87074C55.9208 8.87074 56.1566 8.81818 56.3612 8.71307C56.5657 8.60511 56.7262 8.46023 56.8427 8.27841C56.9592 8.09659 57.0174 7.89062 57.0174 7.66051V6.96591C56.9606 7.00284 56.8825 7.03693 56.783 7.06818C56.6864 7.09659 56.5771 7.12358 56.4549 7.14915C56.3327 7.17187 56.2106 7.19318 56.0884 7.21307C55.9663 7.23011 55.8555 7.24574 55.756 7.25994C55.543 7.29119 55.3569 7.34091 55.1978 7.40909C55.0387 7.47727 54.9151 7.5696 54.8271 7.68608C54.739 7.79972 54.695 7.94176 54.695 8.11222C54.695 8.35938 54.7844 8.5483 54.9634 8.67898C55.1452 8.80682 55.3754 8.87074 55.6538 8.87074ZM60.2283 10V3.45455H62.0437V10H60.2283ZM61.1403 2.6108C60.8704 2.6108 60.6388 2.52131 60.4457 2.34233C60.2553 2.16051 60.1602 1.94318 60.1602 1.69034C60.1602 1.44034 60.2553 1.22585 60.4457 1.04688C60.6388 0.865057 60.8704 0.774147 61.1403 0.774147C61.4102 0.774147 61.6403 0.865057 61.8306 1.04688C62.0238 1.22585 62.1204 1.44034 62.1204 1.69034C62.1204 1.94318 62.0238 2.16051 61.8306 2.34233C61.6403 2.52131 61.4102 2.6108 61.1403 2.6108ZM69.6001 3.45455L67.3118 10H65.2663L62.978 3.45455H64.8956L66.255 8.13778H66.3232L67.6783 3.45455H69.6001ZM72.2198 10.1236C71.8022 10.1236 71.43 10.0511 71.1033 9.90625C70.7766 9.75852 70.5181 9.54119 70.3278 9.25426C70.1403 8.96449 70.0465 8.60369 70.0465 8.17188C70.0465 7.80824 70.1133 7.50284 70.2468 7.25568C70.3803 7.00852 70.5621 6.80966 70.7923 6.65909C71.0224 6.50852 71.2837 6.39489 71.5763 6.31818C71.8718 6.24148 72.1815 6.1875 72.5053 6.15625C72.886 6.11648 73.1928 6.07955 73.4258 6.04545C73.6587 6.00852 73.8278 5.95455 73.9329 5.88352C74.038 5.8125 74.0906 5.70739 74.0906 5.56818V5.54261C74.0906 5.27273 74.0053 5.06392 73.8349 4.91619C73.6673 4.76847 73.4286 4.6946 73.119 4.6946C72.7923 4.6946 72.5323 4.76705 72.3391 4.91193C72.146 5.05398 72.0181 5.23295 71.9556 5.44886L70.2766 5.3125C70.3619 4.91477 70.5295 4.57102 70.7795 4.28125C71.0295 3.98864 71.3519 3.7642 71.7468 3.60795C72.1445 3.44886 72.6048 3.36932 73.1275 3.36932C73.4911 3.36932 73.8391 3.41193 74.1715 3.49716C74.5067 3.58239 74.8036 3.71449 75.0621 3.89347C75.3235 4.07244 75.5295 4.30256 75.68 4.58381C75.8306 4.86222 75.9059 5.19602 75.9059 5.58523V10H74.1843V9.09233H74.1332C74.0281 9.29688 73.8874 9.47727 73.7113 9.63352C73.5352 9.78693 73.3235 9.90767 73.0763 9.99574C72.8292 10.081 72.5437 10.1236 72.2198 10.1236ZM72.7397 8.87074C73.0067 8.87074 73.2425 8.81818 73.4471 8.71307C73.6516 8.60511 73.8121 8.46023 73.9286 8.27841C74.0451 8.09659 74.1033 7.89062 74.1033 7.66051V6.96591C74.0465 7.00284 73.9684 7.03693 73.869 7.06818C73.7724 7.09659 73.663 7.12358 73.5408 7.14915C73.4187 7.17187 73.2965 7.19318 73.1744 7.21307C73.0522 7.23011 72.9414 7.24574 72.842 7.25994C72.6289 7.29119 72.4428 7.34091 72.2837 7.40909C72.1246 7.47727 72.0011 7.5696 71.913 7.68608C71.8249 7.79972 71.7809 7.94176 71.7809 8.11222C71.7809 8.35938 71.8704 8.5483 72.0494 8.67898C72.2312 8.80682 72.4613 8.87074 72.7397 8.87074Z" fill="white"/>
</svg>
